<?xml version="1.0" encoding="UTF-8"?>
<svg xmlns="http://www.w3.org/2000/svg" width="39px" height="40px" viewBox="0 0 39 40" version="1.1">
    <g id="surface1">
        <path style=" stroke:none;fill-rule:nonzero;fill:rgb(255,97,51);fill-opacity:1;"
              d="M 23.585938 37.5 C 23.027344 38.34375 22.285156 38.984375 21.453125 39.40625 C 19.972656 40.160156 18.207031 40.195312 16.738281 39.390625 C 16.238281 39.113281 15.78125 38.738281 15.382812 38.265625 Z M 23.570312 13.832031 C 23.832031 13.824219 24.097656 13.871094 24.359375 13.957031 C 24.847656 14.121094 25.320312 14.445312 25.683594 14.875 C 26.050781 15.304688 26.308594 15.847656 26.375 16.449219 C 26.40625 16.730469 26.394531 17.023438 26.332031 17.324219 C 26.605469 17.566406 26.832031 17.84375 27.003906 18.132812 C 27.265625 18.578125 27.402344 19.070312 27.386719 19.566406 C 27.371094 20.070312 27.203125 20.574219 26.863281 21.035156 C 26.640625 21.332031 26.351562 21.613281 25.980469 21.863281 C 26.019531 22.636719 25.789062 23.335938 25.417969 23.875 C 25 24.476562 24.390625 24.886719 23.765625 24.996094 C 23.628906 25.542969 23.265625 26.027344 22.796875 26.363281 C 22.214844 26.777344 21.449219 26.972656 20.753906 26.785156 C 20.234375 26.640625 19.761719 26.296875 19.4375 25.6875 C 19.046875 26.355469 18.503906 26.710938 17.9375 26.828125 C 17.261719 26.96875 16.566406 26.761719 16.039062 26.355469 C 15.613281 26.023438 15.292969 25.554688 15.1875 25.023438 C 14.964844 25.015625 14.738281 24.972656 14.519531 24.898438 C 14.042969 24.738281 13.582031 24.425781 13.222656 24.011719 C 12.859375 23.59375 12.597656 23.074219 12.515625 22.492188 C 12.472656 22.183594 12.476562 21.859375 12.550781 21.53125 C 12.304688 21.3125 12.097656 21.070312 11.9375 20.804688 C 11.664062 20.363281 11.511719 19.863281 11.519531 19.347656 C 11.523438 18.828125 11.6875 18.304688 12.046875 17.816406 C 12.261719 17.527344 12.542969 17.253906 12.898438 17.003906 C 12.894531 16.902344 12.894531 16.800781 12.898438 16.703125 C 12.925781 15.945312 13.207031 15.28125 13.613281 14.78125 C 14.035156 14.269531 14.601562 13.929688 15.1875 13.847656 C 15.210938 13.753906 15.238281 13.660156 15.269531 13.570312 C 15.460938 13.0625 15.847656 12.625 16.324219 12.351562 C 16.800781 12.074219 17.378906 11.953125 17.9375 12.066406 C 18.476562 12.179688 18.996094 12.503906 19.382812 13.113281 C 19.769531 12.503906 20.285156 12.179688 20.824219 12.066406 C 21.335938 11.960938 21.855469 12.054688 22.308594 12.277344 C 22.75 12.503906 23.132812 12.859375 23.363281 13.289062 C 23.457031 13.460938 23.527344 13.644531 23.570312 13.832031 Z M 19.960938 14.15625 L 19.960938 24.214844 C 20.003906 24.277344 20.039062 24.347656 20.050781 24.429688 C 20.195312 25.304688 20.578125 25.730469 21.011719 25.847656 C 21.40625 25.957031 21.863281 25.828125 22.226562 25.570312 C 22.585938 25.3125 22.839844 24.9375 22.84375 24.546875 C 22.847656 24.097656 22.519531 23.59375 21.640625 23.144531 C 21.398438 23.023438 21.304688 22.730469 21.425781 22.492188 C 21.484375 22.375 21.589844 22.289062 21.710938 22.25 C 21.835938 22.210938 21.96875 22.222656 22.082031 22.28125 C 23.058594 22.777344 23.566406 23.386719 23.742188 24 C 24.066406 23.902344 24.378906 23.660156 24.613281 23.320312 C 24.902344 22.902344 25.070312 22.339844 24.988281 21.710938 C 24.945312 21.511719 25.035156 21.296875 25.222656 21.1875 C 25.601562 20.964844 25.886719 20.71875 26.078125 20.457031 C 26.296875 20.164062 26.402344 19.847656 26.410156 19.542969 C 26.421875 19.230469 26.332031 18.917969 26.160156 18.625 C 26.003906 18.359375 25.78125 18.113281 25.503906 17.90625 C 25.320312 17.785156 25.242188 17.554688 25.3125 17.347656 C 25.40625 17.070312 25.433594 16.800781 25.40625 16.550781 C 25.359375 16.15625 25.183594 15.792969 24.9375 15.5 C 24.6875 15.207031 24.371094 14.988281 24.042969 14.878906 C 23.875 14.820312 23.703125 14.796875 23.542969 14.804688 C 23.460938 15.09375 23.304688 15.386719 23.066406 15.667969 C 22.894531 15.871094 22.585938 15.898438 22.378906 15.726562 C 22.175781 15.554688 22.148438 15.25 22.320312 15.042969 C 22.699219 14.59375 22.703125 14.121094 22.503906 13.75 C 22.367188 13.496094 22.136719 13.28125 21.867188 13.148438 C 21.605469 13.015625 21.304688 12.960938 21.023438 13.019531 C 20.609375 13.105469 20.210938 13.445312 19.960938 14.15625 Z M 22.453125 17.453125 C 22.234375 17.296875 22.1875 16.992188 22.34375 16.777344 C 22.503906 16.558594 22.808594 16.511719 23.023438 16.667969 C 23.125 16.742188 23.21875 16.816406 23.304688 16.894531 C 23.957031 17.476562 24.3125 18.246094 24.375 19.046875 C 24.441406 19.832031 24.21875 20.648438 23.71875 21.332031 C 23.652344 21.429688 23.570312 21.527344 23.480469 21.625 C 23.300781 21.824219 22.992188 21.839844 22.792969 21.660156 C 22.695312 21.574219 22.636719 21.453125 22.632812 21.324219 C 22.625 21.195312 22.671875 21.070312 22.757812 20.976562 C 22.8125 20.914062 22.871094 20.839844 22.929688 20.761719 C 23.289062 20.269531 23.445312 19.683594 23.402344 19.121094 C 23.355469 18.566406 23.105469 18.027344 22.652344 17.617188 C 22.589844 17.558594 22.519531 17.503906 22.453125 17.453125 Z M 18.980469 14.664062 L 18.972656 14.65625 L 18.945312 14.601562 L 18.9375 14.59375 L 18.933594 14.578125 L 18.925781 14.570312 L 18.925781 14.5625 L 18.917969 14.546875 L 18.917969 14.542969 L 18.914062 14.535156 L 18.914062 14.523438 L 18.910156 14.519531 L 18.910156 14.511719 L 18.90625 14.503906 L 18.90625 14.5 C 18.671875 13.550781 18.214844 13.117188 17.738281 13.019531 C 17.425781 12.953125 17.09375 13.027344 16.8125 13.191406 C 16.527344 13.359375 16.296875 13.613281 16.191406 13.90625 C 16.046875 14.296875 16.128906 14.777344 16.621094 15.230469 C 16.816406 15.410156 16.828125 15.71875 16.648438 15.914062 C 16.464844 16.113281 16.15625 16.125 15.957031 15.941406 C 15.570312 15.585938 15.335938 15.207031 15.226562 14.828125 C 14.917969 14.898438 14.613281 15.101562 14.371094 15.398438 C 14.085938 15.742188 13.890625 16.207031 13.871094 16.738281 C 13.867188 16.878906 13.875 17.027344 13.894531 17.179688 C 13.921875 17.363281 13.835938 17.554688 13.667969 17.660156 C 13.300781 17.886719 13.027344 18.132812 12.835938 18.394531 C 12.605469 18.707031 12.496094 19.039062 12.492188 19.359375 C 12.488281 19.679688 12.589844 20.003906 12.769531 20.296875 C 12.921875 20.542969 13.132812 20.765625 13.382812 20.949219 C 13.5625 21.074219 13.636719 21.300781 13.566406 21.507812 C 13.464844 21.804688 13.445312 22.089844 13.484375 22.359375 C 13.535156 22.742188 13.714844 23.09375 13.960938 23.375 C 14.207031 23.65625 14.515625 23.867188 14.835938 23.976562 C 14.96875 24.023438 15.105469 24.046875 15.234375 24.050781 C 15.425781 23.421875 15.949219 22.789062 16.953125 22.28125 C 17.191406 22.15625 17.488281 22.253906 17.609375 22.492188 C 17.730469 22.730469 17.636719 23.023438 17.398438 23.144531 C 16.46875 23.617188 16.121094 24.160156 16.121094 24.632812 C 16.121094 25 16.332031 25.347656 16.640625 25.585938 C 16.957031 25.828125 17.359375 25.953125 17.738281 25.875 C 18.214844 25.777344 18.671875 25.339844 18.90625 24.390625 C 18.921875 24.332031 18.945312 24.277344 18.980469 24.230469 Z M 15.351562 16.996094 C 15.542969 16.808594 15.851562 16.808594 16.039062 17 C 16.230469 17.191406 16.226562 17.5 16.035156 17.6875 C 15.601562 18.109375 15.378906 18.65625 15.355469 19.214844 C 15.328125 19.789062 15.519531 20.378906 15.914062 20.867188 C 16.082031 21.074219 16.046875 21.382812 15.835938 21.550781 C 15.628906 21.71875 15.320312 21.683594 15.152344 21.476562 C 14.605469 20.800781 14.34375 19.980469 14.378906 19.175781 C 14.410156 18.378906 14.734375 17.597656 15.351562 16.996094 Z M 11.535156 27.976562 C 11.09375 27.417969 10.644531 26.84375 10.210938 26.1875 C 9.769531 25.519531 9.355469 24.78125 9.003906 23.910156 C 8.65625 23.046875 8.398438 22.179688 8.238281 21.300781 C 8.082031 20.421875 8.027344 19.527344 8.082031 18.617188 L 8.082031 18.613281 C 8.140625 17.710938 8.3125 16.796875 8.609375 15.871094 C 8.902344 14.953125 9.320312 14.03125 9.863281 13.109375 L 9.910156 13.042969 C 10.609375 12 11.421875 11.132812 12.320312 10.433594 C 13.246094 9.714844 14.289062 9.148438 15.402344 8.769531 L 15.460938 8.753906 C 16.316406 8.460938 17.195312 8.28125 18.074219 8.203125 C 19.003906 8.125 19.945312 8.15625 20.871094 8.292969 C 21.777344 8.425781 22.667969 8.65625 23.519531 8.980469 C 24.367188 9.304688 25.183594 9.722656 25.941406 10.226562 C 26.925781 10.882812 27.808594 11.683594 28.546875 12.613281 C 29.25 13.5 29.816406 14.503906 30.199219 15.609375 L 30.203125 15.609375 C 30.410156 16.210938 30.582031 16.851562 30.691406 17.527344 C 30.808594 18.21875 30.855469 18.921875 30.839844 19.625 C 30.820312 20.378906 30.71875 21.15625 30.523438 21.953125 C 30.339844 22.695312 30.070312 23.460938 29.703125 24.234375 C 28.953125 25.828125 27.671875 27.410156 26.414062 28.960938 C 25.757812 29.765625 25.113281 30.5625 24.5625 31.335938 C 24.382812 31.589844 24.066406 31.699219 23.777344 31.625 C 22.050781 31.492188 16.316406 32.316406 14.195312 32.511719 C 13.835938 32.542969 13.507812 32.316406 13.414062 31.972656 C 13.199219 31.203125 12.914062 30.429688 12.582031 29.722656 C 12.269531 29.066406 11.917969 28.464844 11.535156 27.976562 Z M 11.449219 25.378906 C 11.847656 25.980469 12.277344 26.53125 12.703125 27.070312 C 13.152344 27.644531 13.566406 28.34375 13.925781 29.097656 C 14.207031 29.699219 14.457031 30.339844 14.664062 30.984375 L 23.585938 30.160156 C 24.097656 29.460938 24.675781 28.75 25.257812 28.035156 C 26.460938 26.546875 27.691406 25.03125 28.363281 23.609375 C 28.683594 22.929688 28.921875 22.257812 29.082031 21.605469 C 29.253906 20.910156 29.339844 20.238281 29.355469 19.589844 C 29.375 18.960938 29.324219 18.351562 29.230469 17.765625 C 29.132812 17.1875 28.984375 16.628906 28.796875 16.089844 L 28.800781 16.089844 C 28.472656 15.144531 27.988281 14.285156 27.382812 13.523438 C 26.746094 12.722656 25.976562 12.027344 25.117188 11.453125 C 24.460938 11.019531 23.742188 10.652344 22.988281 10.363281 C 22.238281 10.078125 21.453125 9.871094 20.65625 9.753906 C 19.847656 9.636719 19.019531 9.609375 18.203125 9.679688 C 17.429688 9.746094 16.667969 9.902344 15.941406 10.148438 L 15.882812 10.167969 C 14.945312 10.492188 14.046875 10.964844 13.230469 11.597656 C 12.464844 12.195312 11.761719 12.941406 11.152344 13.84375 L 11.144531 13.863281 C 10.648438 14.695312 10.277344 15.511719 10.019531 16.316406 C 9.765625 17.117188 9.617188 17.914062 9.566406 18.707031 C 9.515625 19.492188 9.566406 20.273438 9.703125 21.046875 C 9.84375 21.828125 10.074219 22.597656 10.378906 23.359375 C 10.691406 24.132812 11.058594 24.789062 11.449219 25.378906 Z M 23.777344 31.625 Z M 23.78125 31.625 C 23.78125 31.625 23.785156 31.621094 23.78125 31.625 Z M 20.207031 1.222656 C 20.234375 0.859375 20.40625 0.546875 20.664062 0.328125 C 20.914062 0.117188 21.25 -0.00390625 21.605469 0.0195312 L 21.605469 0.015625 C 21.632812 0.0195312 21.664062 0.0234375 21.695312 0.0273438 C 22.023438 0.0742188 22.3125 0.238281 22.515625 0.472656 C 22.730469 0.722656 22.847656 1.054688 22.824219 1.410156 L 22.828125 1.410156 C 22.828125 1.433594 22.828125 1.457031 22.824219 1.476562 L 22.597656 4.261719 L 22.601562 4.261719 C 22.601562 4.289062 22.59375 4.320312 22.589844 4.351562 C 22.542969 4.683594 22.378906 4.96875 22.140625 5.167969 C 21.882812 5.386719 21.542969 5.5 21.203125 5.476562 L 21.203125 5.480469 C 21.171875 5.480469 21.140625 5.472656 21.113281 5.46875 C 20.777344 5.425781 20.492188 5.257812 20.289062 5.023438 C 20.070312 4.761719 19.957031 4.429688 19.980469 4.085938 L 19.976562 4.085938 C 19.980469 4.0625 19.980469 4.039062 19.984375 4.019531 Z M 5.492188 5.316406 C 5.253906 5.066406 5.121094 4.734375 5.125 4.386719 C 5.128906 4.039062 5.273438 3.710938 5.523438 3.46875 C 5.777344 3.230469 6.113281 3.097656 6.460938 3.101562 C 6.796875 3.105469 7.128906 3.242188 7.382812 3.5 L 9.375 5.5625 C 9.625 5.824219 9.75 6.160156 9.742188 6.496094 C 9.738281 6.832031 9.601562 7.164062 9.34375 7.414062 C 9.09375 7.652344 8.757812 7.785156 8.40625 7.777344 C 8.070312 7.773438 7.738281 7.636719 7.488281 7.378906 Z M 1.265625 19.503906 C 0.910156 19.492188 0.59375 19.339844 0.363281 19.101562 C 0.125 18.851562 -0.0078125 18.515625 0 18.167969 C 0.0078125 17.804688 0.164062 17.480469 0.40625 17.25 C 0.652344 17.019531 0.980469 16.878906 1.347656 16.890625 L 4.21875 16.949219 C 4.582031 16.957031 4.90625 17.113281 5.136719 17.355469 C 5.371094 17.597656 5.507812 17.925781 5.5 18.289062 L 5.5 18.308594 L 5.496094 18.355469 C 5.472656 18.691406 5.320312 18.988281 5.09375 19.207031 C 4.847656 19.4375 4.519531 19.574219 4.152344 19.566406 L 4.132812 19.566406 L 4.132812 19.570312 L 4.105469 19.566406 Z M 37.632812 17.433594 L 37.679688 17.433594 C 38.019531 17.429688 38.332031 17.558594 38.570312 17.769531 C 38.816406 17.996094 38.976562 18.316406 39 18.675781 L 38.996094 18.691406 C 39 18.691406 39 18.726562 39 18.734375 C 39 19.074219 38.871094 19.382812 38.65625 19.621094 C 38.433594 19.867188 38.109375 20.027344 37.75 20.046875 L 34.878906 20.191406 C 34.515625 20.207031 34.179688 20.078125 33.933594 19.851562 C 33.683594 19.628906 33.519531 19.304688 33.503906 18.949219 C 33.488281 18.601562 33.609375 18.261719 33.84375 18.007812 C 34.070312 17.757812 34.394531 17.597656 34.753906 17.578125 C 35.710938 17.527344 36.675781 17.46875 37.632812 17.433594 Z M 32.609375 5.757812 C 32.832031 5.46875 33.140625 5.296875 33.472656 5.25 C 33.804688 5.203125 34.152344 5.28125 34.445312 5.5 L 34.449219 5.503906 C 34.726562 5.710938 34.914062 6.019531 34.960938 6.363281 C 35.003906 6.691406 34.925781 7.039062 34.707031 7.332031 L 32.980469 9.617188 C 32.765625 9.90625 32.449219 10.082031 32.113281 10.128906 C 31.78125 10.175781 31.433594 10.09375 31.140625 9.878906 C 30.851562 9.664062 30.675781 9.34375 30.628906 9.015625 C 30.582031 8.6875 30.664062 8.339844 30.878906 8.046875 Z M 24.609375 33.007812 L 24.589844 33.539062 L 24.59375 33.722656 C 24.601562 34.070312 24.585938 34.421875 24.546875 34.769531 L 24.34375 35.523438 L 14.40625 36.445312 L 14.253906 36.042969 L 13.957031 34.453125 L 13.972656 34 Z M 24.609375 33.007812 "/>
    </g>
</svg>
