<svg width="40" height="40" viewBox="0 0 40 40" fill="none" xmlns="http://www.w3.org/2000/svg">
<g clip-path="url(#clip0_3040_95673)">
<path d="M32 0H8C3.58172 0 0 3.58172 0 8V32C0 36.4183 3.58172 40 8 40H32C36.4183 40 40 36.4183 40 32V8C40 3.58172 36.4183 0 32 0Z" fill="#001325"/>
<path d="M14.57 28.8897H9.67851C6.36018 28.8897 5.22949 26.9233 5.22949 24.1457C5.22949 23.4329 5.32783 22.6955 5.49989 21.8844C6.3356 17.9515 7.78585 15.8622 12.2103 15.8622H15.971L16.8559 11.6836H20.6904L17.5688 26.4317C17.2246 28.0295 16.4135 28.8897 14.57 28.8897ZM14.0046 25.0797L15.3811 18.6889H12.7019C10.4651 18.6889 9.80143 20.5079 9.40814 22.376C9.26065 23.0397 9.16234 23.6542 9.16234 24.1949C9.16234 25.3011 9.62936 26.0631 11.1779 26.0631H12.8248C13.5622 26.0631 13.8572 25.8173 14.0046 25.0797Z" fill="#F3F6FD"/>
<path d="M30.21 11.5352C34.3149 11.5352 36.6504 12.445 36.6504 15.8125C36.6504 16.476 36.5764 17.2377 36.3799 18.0977L35.4707 22.3262C34.1925 28.2006 32.3976 29.0361 26.9902 29.0361C22.9098 29.0361 20.5742 28.1266 20.5742 24.71C20.5742 24.0219 20.6726 23.2353 20.8691 22.3262L21.7793 18.0977C23.0083 12.3464 24.8025 11.5352 30.21 11.5352ZM26.1943 25.4385C26.5345 25.5446 26.9601 25.5947 27.4814 25.5947C29.7674 25.5947 30.5297 24.7344 31.0459 22.2764L31.6895 19.2871L26.1943 25.4385ZM29.7432 14.9766C27.5309 14.9766 26.6703 15.8368 26.1787 18.1719L25.4033 21.7656L31.2656 15.2031C30.8957 15.0471 30.3954 14.9766 29.7432 14.9766Z" fill="#008EFF"/>
</g>
<defs>
<clipPath id="clip0_3040_95673">
<rect width="40" height="40" fill="white"/>
</clipPath>
</defs>
</svg>
